<svg width="23" height="18" viewBox="0 0 23 18" fill="none" xmlns="http://www.w3.org/2000/svg">
<path d="M17.7703 4.5524C18.0698 4.52356 18.8236 4.41661 19.2658 4.04735C19.4654 3.87992 19.7723 3.9776 19.8526 4.22502C20.027 4.75705 20.2136 5.53648 20.1707 6.34383C20.1642 6.46568 20.208 6.58382 20.2883 6.67497C20.6903 7.13167 21.8696 8.73985 21.8696 11.8893C21.8696 15.686 18.1453 17.5593 11.3322 16.8534C5.00692 16.1976 1 12.1563 1 8.77711C1 5.84162 3.09722 4.53937 3.64858 4.24824C3.73534 4.20173 3.79785 4.12083 3.81837 4.02503C3.88554 3.71901 4.00216 3.02984 3.8277 2.50153C3.73254 2.21133 3.98816 1.93133 4.28204 2.01504C4.64494 2.11828 5.07129 2.33311 5.46312 2.76841C5.53309 2.84561 5.63944 2.87913 5.743 2.86145C6.85691 2.67357 13.0833 1.78344 17.5389 4.49942C17.6089 4.54127 17.6891 4.55984 17.7703 4.5524Z" stroke="currentColor" stroke-width="2" fill="none"/>
</svg>
