<svg width="20" height="20" viewBox="0 0 20 20" fill="none" 
	xmlns="http://www.w3.org/2000/svg">
	<g clip-path="url(#clip0)">
		<path d="M19.5886 2.30599L17.741 3.09818L12.1134 4.30326C11.8228 4.36548 11.5196 4.29526 11.286 4.11164L7.7347 1.32031L7.07042 3.36577C6.84552 4.05828 5.97958 4.28596 5.44315 3.79363L3.57163 2.076L3.2975 5.63927C3.26962 6.00158 3.14363 6.34846 2.94548 6.65306C1.62079 8.68941 -3.21145 16.8663 3.40325 18.5642C6.07583 19.2506 10.533 16.7837 12.3575 15.67C12.8233 15.3856 12.9654 14.7855 12.6955 14.3111C12.3458 13.6965 12.6903 12.8934 13.3488 12.6356C15.7591 11.6921 20.4502 8.97604 19.5886 2.30599Z" fill="#BEDB7A" stroke="#BEDB7A" stroke-width="0.1" stroke-miterlimit="10"/>
		<path d="M10.2422 6.80255C11.0795 7.47519 12.2181 7.74625 13.3285 7.42864C14.4389 7.11103 15.2644 6.2796 15.6231 5.26562L10.2422 6.80255Z" fill="black"/>
		<path d="M3.9939 8.58576C4.83124 9.25839 5.96985 9.52946 7.08025 9.21185C8.19064 8.89424 9.01615 8.0628 9.37476 7.04883L3.9939 8.58576Z" fill="black"/>
		<path d="M18.6235 3.78777C18.1815 3.42796 18.2228 2.7414 18.7153 2.4546C19.2287 2.15565 19.7762 1.8615 19.9109 1.88186C20.0418 1.90126 20.0081 2.57545 19.9394 3.26064C19.8749 3.90326 19.1244 4.1955 18.6235 3.78777Z" fill="black"/>
		<path d="M8.18442 13.2563C8.18442 13.2563 7.60373 14.6472 6.46148 14.4975C5.31922 14.3478 6.53793 12.5791 6.53793 12.5791L8.18442 13.2563Z" fill="black"/>
		<path d="M11.1724 13.1512C8.83149 13.6805 7.2469 13.237 5.89258 12.1025" stroke="black" stroke-width="0.2" stroke-miterlimit="10" stroke-linecap="round" stroke-linejoin="round"/>
		<path d="M12.231 6.2327C12.231 6.2327 12.5313 7.01667 13.2876 6.80037C14.044 6.58407 13.8273 5.77637 13.8273 5.77637L12.231 6.2327Z" fill="white"/>
		<path d="M6.18652 7.96024C6.18652 7.96024 6.48688 8.74423 7.24322 8.52792C7.99956 8.31162 7.78294 7.50391 7.78294 7.50391L6.18652 7.96024Z" fill="white"/>
	</g>
	<defs>
		<clipPath id="clip0">
			<rect width="20" height="20" fill="white"/>
		</clipPath>
	</defs>
</svg>